<?xml version="1.0" encoding="UTF-8" standalone="no"?>
<!-- Created with Inkscape (http://www.inkscape.org/) -->

<svg
   width="125"
   height="100"
   viewBox="0 0 33.072916 26.458333"
   version="1.1"
   id="svg1"
   sodipodi:docname="logo-3color-100x150.svg"
   inkscape:version="1.4 (86a8ad7, 2024-10-11)"
   xmlns:inkscape="http://www.inkscape.org/namespaces/inkscape"
   xmlns:sodipodi="http://sodipodi.sourceforge.net/DTD/sodipodi-0.dtd"
   xmlns="http://www.w3.org/2000/svg"
   xmlns:svg="http://www.w3.org/2000/svg">
  <sodipodi:namedview
     id="namedview1"
     pagecolor="#ffffff"
     bordercolor="#000000"
     borderopacity="0.25"
     inkscape:showpageshadow="2"
     inkscape:pageopacity="0.0"
     inkscape:pagecheckerboard="0"
     inkscape:deskcolor="#d1d1d1"
     inkscape:document-units="mm"
     inkscape:zoom="4.0970529"
     inkscape:cx="103.12291"
     inkscape:cy="62.117821"
     inkscape:window-width="1920"
     inkscape:window-height="1017"
     inkscape:window-x="1912"
     inkscape:window-y="-8"
     inkscape:window-maximized="1"
     inkscape:current-layer="layer1"
     showgrid="false"
     showguides="true" />
  <defs
     id="defs1">
    <filter
       inkscape:label="Evanescent"
       inkscape:menu="Blurs"
       inkscape:menu-tooltip="Blur the contents of objects, preserving the outline and adding progressive transparency at edges"
       style="color-interpolation-filters:sRGB"
       id="filter19"
       x="-0.12277873"
       y="-0.11658474"
       width="1.2455469"
       height="1.2331694">
      <feGaussianBlur
         result="result6"
         stdDeviation="3"
         in="SourceGraphic"
         id="feGaussianBlur19" />
      <feColorMatrix
         values="1 0 0 0 0 0 1 0 0 0 0 0 1 0 0 0 0 0 1 0 "
         result="result7"
         in="SourceGraphic"
         id="feColorMatrix19" />
      <feComposite
         operator="in"
         in="result6"
         in2="result7"
         id="feComposite19" />
    </filter>
  </defs>
  <g
     inkscape:label="Capa 1"
     inkscape:groupmode="layer"
     id="layer1"
     transform="matrix(1.0959825,0,0,1.0212994,2.1796563,-0.21731102)"
     style="display:inline">
    <g
       id="g1"
       transform="matrix(0.4149321,0,0,0.41141398,-1.7070729,-0.8792365)"
       style="display:inline;opacity:1;mix-blend-mode:luminosity">
      <path
         fill-rule="nonzero"
         fill="#24255d"
         fill-opacity="1"
         d="m 48.183966,28.806491 c 0.0081,0.01703 0.0162,0.03486 0.0243,0.05189 0.794698,1.669336 2.34975,2.899638 4.224711,3.312648 l 1.967101,0.432295 -1.838517,-2.549397 11.051363,3.512443 H 47.090562 C 46.955869,31.064241 45.904028,28.791762 44.250778,27.0452 l 4.996194,-4.76008 -0.669183,1.019927 c -1.085292,1.654974 -1.249302,3.724789 -0.393829,5.501264"
         id="path998-9"
         style="display:inline;opacity:1;fill:#e00097;fill-opacity:1;stroke:#000000;stroke-width:0.124158;stroke-dasharray:none;stroke-opacity:1" />
      <path
         fill-rule="nonzero"
         fill="#24255d"
         fill-opacity="1"
         d="M 36.751146,60.880195 V 44.854349 c 2.571078,-0.130573 4.908965,-1.15185 6.704053,-2.755408 l 4.897056,4.847005 -1.048874,-0.648994 c -1.703795,-1.053677 -3.832307,-1.211756 -5.658155,-0.384939 -0.01805,0.01107 -0.03539,0.01734 -0.05344,0.02602 -1.717688,0.77169 -2.9819,2.280026 -3.406606,4.097661 l -0.444585,1.907973 2.620692,-1.782278 -3.610029,10.71925"
         id="path999-5"
         style="display:inline;opacity:1;mix-blend-mode:normal;fill:#00c5cc;fill-opacity:1;stroke:#000000;stroke-width:0.124;stroke-dasharray:none;stroke-opacity:1" />
      <path
         fill-rule="nonzero"
         fill="#36ac9c"
         fill-opacity="1"
         d="m 27.692335,43.352893 c 2.077902,1.855963 4.782941,3.034332 7.758884,3.185533 V 65.085985 L 31.272594,52.679712 34.306091,54.74381 33.79109,52.536352 c -0.491169,-2.104382 -1.954861,-3.851301 -3.941462,-4.740993 -0.02095,-0.0094 -0.04188,-0.02049 -0.06138,-0.02757 -2.113638,-0.960329 -4.576551,-0.776657 -6.548275,0.441989 l -1.213594,0.749232 5.666092,-5.606116"
         id="path997-6"
         style="display:inline;opacity:1;mix-blend-mode:normal;fill:#00c5cc;fill-opacity:1;stroke:#000000;stroke-width:0.124;stroke-dasharray:none;stroke-opacity:1" />
      <path
         fill-rule="nonzero"
         fill="#36ac9c"
         fill-opacity="1"
         d="M 35.451219,3.1586614 V 21.704282 c -2.975943,0.150272 -5.680982,1.331542 -7.758884,3.187464 l -5.666092,-5.60903 1.213593,0.752146 c 1.971724,1.218628 4.434637,1.402281 6.54826,0.441913 0.0195,-0.0094 0.04045,-0.01734 0.06138,-0.02758 1.986608,-0.892625 3.450264,-2.636622 3.941463,-4.741004 l 0.514996,-2.20943 -3.033496,2.06413 4.178625,-12.4043344"
         id="path996-4"
         style="display:inline;opacity:1;mix-blend-mode:normal;fill:#00c5cc;fill-opacity:1;stroke:#000000;stroke-width:0.124;stroke-dasharray:none;stroke-opacity:1" />
      <path
         fill-rule="nonzero"
         fill="#24255d"
         fill-opacity="1"
         d="M 43.455199,26.145742 C 41.660111,24.542173 39.322224,23.520915 36.751146,23.390319 V 7.3644755 l 3.610027,10.7192405 -2.620691,-1.782278 0.444587,1.907981 c 0.424727,1.81764 1.688916,3.325956 3.406605,4.097787 0.01805,0.0075 0.0354,0.01497 0.05344,0.02285 1.825853,0.829787 3.954361,0.671693 5.658155,-0.381943 l 1.048882,-0.649077 -4.897065,4.847024"
         id="path995-6"
         style="display:inline;opacity:1;mix-blend-mode:normal;fill:#00c5cc;fill-opacity:1;stroke:#000000;stroke-width:0.124;stroke-dasharray:none;stroke-opacity:1"
         inkscape:label="path995" />
      <path
         fill-rule="nonzero"
         fill="#36ac9c"
         fill-opacity="1"
         d="m 21.865482,46.849727 c 1.231459,-1.953149 1.417023,-4.388434 0.447548,-6.480049 -0.01011,-0.02048 -0.01878,-0.04019 -0.02746,-0.06067 -0.902035,-1.967882 -2.666364,-3.413335 -4.792883,-3.901382 l -2.230723,-0.510631 2.08584,3.001898 L 4.8129282,34.765748 H 23.553697 c 0.151807,2.943963 1.344581,5.621812 3.220049,7.678082 l -5.666099,5.605093 0.75813,-1.198984"
         id="path994-5"
         style="display:inline;opacity:1;mix-blend-mode:normal;fill:#e00097;fill-opacity:1;stroke:#000000;stroke-width:0.124;stroke-dasharray:none;stroke-opacity:1" />
      <path
         fill-rule="nonzero"
         fill="#36ac9c"
         fill-opacity="1"
         d="m 21.106368,20.28674 5.667089,5.60807 C 24.897988,27.951082 23.70523,30.62893 23.5534,33.572887 H 4.8126151 l 12.5348789,-4.136069 -2.085839,3.00189 2.230713,-0.507709 c 2.12652,-0.48801 3.890856,-1.935497 4.792863,-3.901408 0.0087,-0.02048 0.01805,-0.0402 0.02745,-0.06068 0.969491,-2.091614 0.783929,-4.529847 -0.447547,-6.480055 l -0.75908,-1.201948"
         id="path993-5"
         style="display:inline;opacity:1;mix-blend-mode:normal;fill:#e00097;fill-opacity:1;stroke:#000000;stroke-width:0.124;stroke-dasharray:none;stroke-opacity:1" />
      <path
         fill-rule="nonzero"
         fill="#24255d"
         fill-opacity="1"
         d="m 48.995135,46.134154 -5.060296,-4.825585 c 1.674461,-1.769908 2.739844,-4.073688 2.876218,-6.606271 h 16.734349 l -11.193146,3.557384 1.862113,-2.583446 -1.992339,0.440048 c -1.899015,0.418544 -3.474013,1.662292 -4.278945,3.356878 -0.0082,0.01727 -0.01642,0.03532 -0.02463,0.05257 -0.866454,1.79727 -0.700306,3.894705 0.398883,5.57462 l 0.677764,1.033567"
         id="path992-2"
         style="display:inline;opacity:1;mix-blend-mode:normal;fill:#e00097;fill-opacity:1;stroke:#000000;stroke-width:0.125658;stroke-dasharray:none;stroke-opacity:1" />
      <path
         fill-rule="nonzero"
         fill="#231f20"
         fill-opacity="1"
         d="m 13.674534,11.930377 -3.391518,1.873305 c 0.838428,0 1.518214,0.68016 1.518214,1.518214 l 1.873304,-3.391519"
         id="path1000"
         style="fill:#000000;fill-opacity:1;stroke:#000000;stroke-width:0.0491502;stroke-dasharray:none;stroke-opacity:1"
         transform="matrix(2.4100329,0,0,2.4306417,6.2442094,1.953581)" />
      <path
         fill-rule="nonzero"
         fill="#36ac9c"
         fill-opacity="1"
         d="m 12.67524,9.4814414 c 1.584191,0.5267066 2.726928,2.0200886 2.726928,3.7814536 0,1.759884 -1.142737,3.253626 -2.726928,3.780332 1.909628,-0.202378 3.397448,-1.81733 3.397448,-3.780332 0,-1.963374 -1.48782,-3.5794458 -3.397448,-3.7814536"
         id="path1001"
         style="fill:#00c5cc;fill-opacity:1;stroke:#000000;stroke-width:0.048;stroke-dasharray:none;stroke-opacity:1"
         transform="matrix(2.4100329,0,0,2.4306417,6.2442094,1.953581)" />
      <path
         fill-rule="nonzero"
         fill="#24255d"
         fill-opacity="1"
         d="m 9.002024,13.262895 c 0,-1.960413 1.256158,-3.6268899 3.006774,-4.2388438 -2.2239455,0.1349217 -3.9860512,1.9804248 -3.9860512,4.2388438 0,2.257298 1.7621057,4.10281 3.9860512,4.238463 -1.750616,-0.613065 -3.006774,-2.279171 -3.006774,-4.238463"
         id="path1002"
         style="fill:#e00097;fill-opacity:1;stroke:#000000;stroke-width:0.048;stroke-dasharray:none;stroke-opacity:1"
         transform="matrix(2.4100329,0,0,2.4306417,6.2442094,1.953581)" />
    </g>
  </g>
  <g
     inkscape:groupmode="layer"
     id="layer2"
     inkscape:label="Capa 2"
     transform="translate(-13.690735,0.06457894)" />
  <g
     inkscape:groupmode="layer"
     id="layer3"
     inkscape:label="Capa 3">
    <text
       xml:space="preserve"
       style="font-style:normal;font-variant:normal;font-weight:300;font-stretch:normal;font-size:5.11798px;line-height:0.8;font-family:'LT Wave';-inkscape-font-specification:'LT Wave, Light';font-variant-ligatures:normal;font-variant-caps:normal;font-variant-numeric:normal;font-variant-east-asian:normal;text-align:center;text-anchor:middle;display:none;fill:#000000;fill-opacity:1;stroke:#000000;stroke-width:0.168;stroke-linecap:round;stroke-linejoin:round;stroke-dasharray:none;stroke-opacity:1;paint-order:stroke markers fill"
       x="42.265968"
       y="23.888615"
       id="text4"
       inkscape:label="text4"><tspan
         sodipodi:role="line"
         id="tspan4"
         style="font-style:normal;font-variant:normal;font-weight:300;font-stretch:normal;font-size:5.11798px;font-family:'LT Wave';-inkscape-font-specification:'LT Wave, Light';font-variant-ligatures:normal;font-variant-caps:normal;font-variant-numeric:normal;font-variant-east-asian:normal;fill:#000000;fill-opacity:1;stroke:#000000;stroke-width:0.168;stroke-dasharray:none;stroke-opacity:1"
         x="0"
         y="0">Choose your course</tspan></text>
  </g>
</svg>
