<?xml version="1.0" encoding="UTF-8" standalone="no"?>
<!-- Created with Inkscape (http://www.inkscape.org/) -->

<svg
   width="125mm"
   height="100mm"
   viewBox="0 0 125 100"
   version="1.1"
   id="svg1"
   inkscape:version="1.4 (86a8ad7, 2024-10-11)"
   sodipodi:docname="title-rumbobici-125x100.svg"
   xmlns:inkscape="http://www.inkscape.org/namespaces/inkscape"
   xmlns:sodipodi="http://sodipodi.sourceforge.net/DTD/sodipodi-0.dtd"
   xmlns="http://www.w3.org/2000/svg"
   xmlns:svg="http://www.w3.org/2000/svg">
  <sodipodi:namedview
     id="namedview1"
     pagecolor="#505050"
     bordercolor="#eeeeee"
     borderopacity="1"
     inkscape:showpageshadow="0"
     inkscape:pageopacity="0"
     inkscape:pagecheckerboard="0"
     inkscape:deskcolor="#505050"
     inkscape:document-units="mm"
     inkscape:zoom="1"
     inkscape:cx="397.5"
     inkscape:cy="100.5"
     inkscape:window-width="1920"
     inkscape:window-height="1017"
     inkscape:window-x="1912"
     inkscape:window-y="-8"
     inkscape:window-maximized="1"
     inkscape:current-layer="layer1" />
  <defs
     id="defs1" />
  <g
     inkscape:label="Capa 1"
     inkscape:groupmode="layer"
     id="layer1">
    <g
       id="g4"
       transform="matrix(3.0904565,0,0,3.0904565,-67.999219,20.454774)">
      <path
         id="text37-3"
         style="font-style:normal;font-variant:normal;font-weight:900;font-stretch:normal;font-size:15.6231px;line-height:0.8;font-family:'LT Wave Alt';-inkscape-font-specification:'LT Wave Alt, Heavy';font-variant-ligatures:normal;font-variant-caps:normal;font-variant-numeric:normal;font-variant-east-asian:normal;display:inline;mix-blend-mode:normal;fill:#00c5cc;fill-opacity:1;stroke:#000000;stroke-width:0.129711;stroke-linecap:butt;stroke-dasharray:none;stroke-opacity:1"
         d="m 58.395221,2.2967994 c -2.452848,0 -3.684914,1.073752 -3.684914,3.61667 0,2.480387 1.232066,3.5537 3.684914,3.5537 2.463847,0 3.662905,-1.083735 3.662905,-3.5537 0,-2.532496 -1.199058,-3.61667 -3.662905,-3.61667 z m -35.813719,0.09408 v 6.982572 h 1.770844 v -2.282458 h 0.968039 l 1.616785,2.282458 h 2.221851 l -1.715992,-2.39728 c 1.000938,-0.270967 1.485071,-1.031759 1.485071,-2.376171 0,-1.584113 -0.847056,-2.209117 -2.485955,-2.209117 z m 7.556393,0 v 4.168579 c 0,2.011406 1.627843,2.907707 3.244742,2.907707 1.6169,0 3.233907,-0.896301 3.233907,-2.907707 v -4.168575 h -1.760009 v 4.220806 c 0,0.698261 -0.439962,1.364956 -1.473898,1.364956 -1.022937,0 -1.473898,-0.666695 -1.473898,-1.364956 v -4.220806 z m 7.765644,0 v 6.982572 h 1.738 v -3.991523 l 1.253812,2.29283 c 0.307981,0.562777 0.659819,0.760448 1.187786,0.760448 0.527967,0 0.891143,-0.218515 1.188125,-0.760448 l 1.253812,-2.29283 v 3.991523 h 1.770845 v -6.982568 h -1.814862 l -2.287877,4.262292 c -0.04399,0.07295 -0.142906,0.08337 -0.186903,0 l -2.277043,-4.262292 z m 9.723391,0 v 6.982572 h 3.915835 c 1.473908,0 2.298711,-0.594238 2.298711,-1.876119 0,-0.823321 -0.527848,-1.32356 -1.231803,-1.688323 v -0.04148 c 0.571964,-0.291811 0.934857,-0.761049 0.934857,-1.480153 0,-1.302725 -0.847016,-1.896492 -2.39792,-1.896492 z m 10.768291,1.417183 c 1.275921,0 1.848044,0.635711 1.848044,2.073919 0,1.438206 -0.572123,2.073917 -1.848044,2.073917 -1.29792,0 -1.858879,-0.635711 -1.858879,-2.073917 0,-1.438208 0.560959,-2.073919 1.858879,-2.073919 z m -34.042875,0.01037 h 1.858878 c 0.582965,0 0.902014,0.291756 0.902014,0.854533 0,0.687838 -0.319049,0.979731 -0.902014,0.979731 h -1.858878 z m 25.045428,0 h 1.550758 c 0.439973,0 0.725946,0.239694 0.725946,0.614878 0,0.52109 -0.318846,0.854533 -0.824815,0.854533 h -1.451889 z m 0,2.803623 h 1.848043 c 0.439973,0 0.725945,0.260285 0.725945,0.666735 0,0.40645 -0.285972,0.656735 -0.725945,0.656735 h -1.848043 z" />
      <path
         id="text3-7"
         style="font-style:normal;font-variant:normal;font-weight:900;font-stretch:normal;font-size:12.7px;line-height:0.8;font-family:'LT Wave Alt';-inkscape-font-specification:'LT Wave Alt, Heavy';font-variant-ligatures:normal;font-variant-caps:normal;font-variant-numeric:normal;font-variant-east-asian:normal;display:inline;mix-blend-mode:normal;fill:#e00097;fill-opacity:1;stroke:#000000;stroke-width:0.167899;stroke-linecap:butt;stroke-dasharray:none;stroke-opacity:1"
         d="m 47.447783,8.4980478 c -3.841997,0 -5.653363,1.2940275 -5.653363,4.5292652 0,3.182414 1.811396,4.555825 5.375838,4.555825 1.621528,0 2.454643,-0.119082 3.301926,-0.330374 v -1.94119 c -0.89111,0.184845 -1.797094,0.356892 -3.418623,0.356892 -1.811436,0 -2.833938,-0.819117 -2.833938,-2.681037 0,-1.835501 1.02247,-2.574787 3.111468,-2.574787 1.256319,0 2.498323,0.185057 3.141093,0.422798 V 8.8544068 c -0.64277,-0.224514 -1.797295,-0.356394 -3.024401,-0.356394 z M 28.17979,8.6164908 v 8.8477002 h 5.200489 c 1.957523,0 3.052817,-0.752468 3.052817,-2.376692 0,-1.043198 -0.701211,-1.677117 -1.63615,-2.139292 v -0.05333 c 0.759637,-0.36969 1.241927,-0.963617 1.241927,-1.874767 0,-1.6506272 -1.124848,-2.4037992 -3.184628,-2.4037992 z m 9.758251,0 v 8.8476922 h 2.35204 V 8.6164908 Z m 14.052993,0 v 8.8476922 h 2.352042 V 8.6164908 Z M 30.531226,10.425979 h 2.060001 c 0.584336,0 0.964398,0.303785 0.964398,0.779136 0,0.660249 -0.423626,1.082925 -1.095605,1.082925 h -1.928794 z m 0,3.552025 h 2.454225 c 0.584343,0 0.964399,0.33002 0.964399,0.844984 0,0.515004 -0.380073,0.832255 -0.964399,0.832255 h -2.454225 z" />
    </g>
  </g>
</svg>
