<?xml version="1.0" encoding="UTF-8" standalone="no"?>
<!-- Created with Inkscape (http://www.inkscape.org/) -->

<svg
   width="32"
   height="32"
   viewBox="0 0 8.4666664 8.4666666"
   version="1.1"
   id="svg1"
   inkscape:version="1.4 (86a8ad7, 2024-10-11)"
   sodipodi:docname="favicon-rumbobici.svg"
   xmlns:inkscape="http://www.inkscape.org/namespaces/inkscape"
   xmlns:sodipodi="http://sodipodi.sourceforge.net/DTD/sodipodi-0.dtd"
   xmlns="http://www.w3.org/2000/svg"
   xmlns:svg="http://www.w3.org/2000/svg">
  <sodipodi:namedview
     id="namedview1"
     pagecolor="#ffffff"
     bordercolor="#000000"
     borderopacity="0.25"
     inkscape:showpageshadow="2"
     inkscape:pageopacity="0.0"
     inkscape:pagecheckerboard="0"
     inkscape:deskcolor="#d1d1d1"
     inkscape:document-units="mm"
     inkscape:zoom="16"
     inkscape:cx="12.03125"
     inkscape:cy="12.65625"
     inkscape:window-width="1920"
     inkscape:window-height="1017"
     inkscape:window-x="1912"
     inkscape:window-y="-8"
     inkscape:window-maximized="1"
     inkscape:current-layer="g1"
     showgrid="false" />
  <defs
     id="defs1" />
  <g
     inkscape:groupmode="layer"
     id="layer2"
     inkscape:label="Capa 2"
     style="display:none"
     transform="translate(0.03307292,0.01653646)">
    <g
       inkscape:groupmode="layer"
       id="layer4"
       inkscape:label="Capa 3">
      <rect
         style="opacity:0;fill:#ffdd55;fill-opacity:1;stroke:#000000;stroke-width:0;stroke-dasharray:none;stroke-opacity:1"
         id="rect11"
         width="8.417057"
         height="8.4666662"
         x="0.016536457"
         y="0.016536457" />
    </g>
    <path
       id="path992-4"
       style="display:inline;fill:#ffffff;fill-opacity:1;stroke:#000000;stroke-width:0.0161347;stroke-dasharray:none;stroke-opacity:1"
       d="M 6.3411347,2.661011 5.9251852,3.0198305 c 0.00698,-0.00167 0.014064,-0.00283 0.021437,-0.00295 0.00597,-1.055e-4 0.01208,-2.866e-4 0.017863,0.00101 0.00819,0.00183 0.016938,0.00361 0.02349,0.00825 0.00813,0.00577 0.013299,0.014118 0.019559,0.021482 0.00154,-3.363e-4 0.00307,-7.195e-4 0.00465,-0.00101 0.022729,-0.0034 0.042828,5.731e-4 0.058414,0.017903 0.00357,-0.00133 0.00715,-0.0027 0.010812,-0.00388 0.013321,-0.00362 0.019437,-0.00577 0.033316,-0.00739 0.00559,-6.463e-4 0.011287,-0.00101 0.016971,-0.00101 0.01878,-0.092208 0.057854,-0.1818316 0.1169171,-0.2634718 z M 5.9192011,3.0572692 c -4.096e-4,4.112e-4 -0.00117,0.00161 -0.00197,0.00279 6.964e-4,-8.598e-4 0.0016,-0.00162 0.00205,-0.00257 2.048e-4,-4.235e-4 1.31e-4,-4.483e-4 -8.92e-5,-2.366e-4 z m 0.194979,0.062034 c 2.594e-4,2.615e-4 5.598e-4,5.107e-4 8.215e-4,7.866e-4 -1.121e-4,-3.613e-4 -3.275e-4,-6.343e-4 -5.323e-4,-7.866e-4 -1.188e-4,-8.86e-5 -2.047e-4,-9.04e-5 -2.73e-4,0 z m 0.013397,0.1622863 c -0.018232,0.018542 -0.037036,0.036717 -0.057789,0.05316 -0.021738,0.016697 -0.044456,0.032857 -0.071007,0.043432 -0.00436,0.00134 -0.00862,0.00311 -0.013129,0.00404 -0.012265,0.00255 -0.029373,0.00412 -0.040909,-0.00163 -0.0033,-0.00164 -0.00653,-0.00352 -0.00965,-0.00553 -0.00585,0.0033 -0.011872,0.00644 -0.01822,0.00895 -0.00341,0.00134 -0.00672,0.00289 -0.010355,0.00366 -0.0065,0.00137 -0.013217,0.00183 -0.019828,0.00272 -0.01278,-0.00516 -0.029326,-0.00603 -0.038406,-0.015411 -0.00819,-0.00847 -0.011848,-0.017033 -0.012594,-0.025452 -0.00355,0.00267 -0.00713,0.00527 -0.010095,0.00731 -0.00228,0.00133 -0.00441,0.00279 -0.00678,0.00397 -0.0099,0.00488 -0.028251,0.012125 -0.038496,0.00709 -0.00252,-0.00124 -0.00444,-0.00233 -0.0067,-0.0035 -0.00556,0.00243 -0.01119,0.00479 -0.016791,0.00716 0.04391,0.052634 0.083338,0.1082047 0.1180765,0.166178 0.00982,-4.111e-4 0.019642,-9.923e-4 0.029475,-0.00149 0.02292,-0.00103 0.045843,-0.00185 0.068775,-0.00264 0.023277,-8.231e-4 0.046644,-0.00144 0.069935,-0.00179 0.00512,-1.494e-4 0.010189,-1.991e-4 0.015275,-7.78e-5 0.015267,3.487e-4 0.030414,0.00188 0.045462,0.00428 0.016318,0.00269 0.031837,0.00767 0.046355,0.014632 0.016536,0.00852 0.030343,0.021403 0.033227,0.038606 5.051e-4,5.57e-5 0.00102,1.029e-4 0.00151,1.494e-4 0.00471,5.232e-4 0.00933,0.00131 0.014022,0.00195 0.018161,0.00334 0.036821,0.00756 0.052878,0.016035 0.00327,0.00173 0.00631,0.00373 0.00947,0.00561 0.011579,0.010231 0.020255,0.015453 0.021793,0.032924 8.333e-4,0.00945 -0.00197,0.019198 -0.00634,0.027865 -0.00529,0.010457 -0.017757,0.017681 -0.029028,0.022417 -0.00372,0.00156 -0.00772,0.00252 -0.011616,0.00375 -0.00624,0.00131 -0.012531,0.00237 -0.018846,0.00327 7.4e-5,4.983e-4 2.048e-4,9.834e-4 2.732e-4,0.00149 7.262e-4,0.00795 -0.00105,0.015268 -0.00455,0.021872 0.00619,0.00369 0.011641,0.008 0.014558,0.012767 0.00462,0.00755 0.00956,0.015578 0.00992,0.024129 3.822e-4,0.00951 -0.00527,0.01847 -0.00786,0.02771 -0.00261,0.00248 -0.00505,0.00508 -0.0076,0.00762 l -8.94e-5,7.77e-5 c -0.00489,0.018371 -0.027437,0.035209 -0.068595,0.036816 -0.019301,7.501e-4 -0.038578,0.00151 -0.057877,0.00225 -0.028975,0.00103 -0.057992,0.00209 -0.086995,0.00218 -0.00128,-1.73e-5 -0.00255,-6.04e-5 -0.00384,-7.77e-5 0.020526,0.075371 0.033572,0.1531898 0.038317,0.2328822 H 8.328089 L 7.632577,3.8730549 c -0.024333,0.019056 -0.063633,0.031673 -0.1176299,0.029966 -0.014654,-4.609e-4 -0.029334,-0.00124 -0.043944,-0.00233 -0.017693,-0.00133 -0.035376,-0.00291 -0.052964,-0.00505 -0.018173,-0.00222 -0.036276,-0.0047 -0.054394,-0.00724 -0.020684,-0.00316 -0.041319,-0.00669 -0.061719,-0.011049 -0.019271,-0.00436 -0.03835,-0.00921 -0.056895,-0.015568 -0.019623,-0.00629 -0.038958,-0.013227 -0.057699,-0.021327 -0.01542,-0.0067 -0.030618,-0.013869 -0.04573,-0.021094 -0.00148,-7.074e-4 -0.014806,-0.00567 -0.00689,-0.00382 0.0022,5.107e-4 0.00441,9.22e-4 0.00659,0.0014 0.090073,0.019867 0.059102,-0.027856 0.024474,-0.078069 L 6.7996068,3.6336341 7.0538924,3.9526799 6.7818326,3.898351 C 6.5225144,3.8466641 6.307437,3.6930169 6.1975207,3.4837237 c -0.00111,-0.00216 -0.00227,-0.00436 -0.00339,-0.00654 -0.033526,-0.062895 -0.05535,-0.1287678 -0.066544,-0.1955994 z" />
    <path
       id="path993-8"
       style="display:inline;fill:#ffffff;fill-opacity:1;stroke:#000000;stroke-width:0.0161347;stroke-dasharray:none;stroke-opacity:1"
       d="M 0.08526655,4.2204633 1.8540513,4.7290648 1.5597475,4.3598924 1.8745087,4.4223332 c 0.3000639,0.060025 0.549013,0.2381112 0.6762916,0.4798918 0.00126,0.00254 0.00255,0.00493 0.00395,0.00747 0.1368004,0.2572399 0.1105602,0.5570732 -0.063206,0.7969229 L 2.3843909,5.854412 3.0536989,5.2771901 c -0.03564,1.129e-4 -0.037528,-0.00813 -0.048039,-0.030833 -0.011385,0.00124 -0.026228,-0.00522 -0.051848,-0.017961 -0.01153,0.00211 -0.023188,0.00388 -0.034849,0.0054 -0.015131,0.010014 -0.033,0.015373 -0.051002,0.020019 -0.017792,0.0047 -0.036424,0.00592 -0.054882,0.0067 -0.016169,5.606e-4 -0.032248,1.743e-4 -0.048392,-6.464e-4 -0.016736,-8.597e-4 -0.033581,-0.00386 -0.04818,-0.011396 -0.00388,-0.002 -0.00739,-0.00446 -0.011079,-0.0067 -0.019245,-0.014475 -0.028261,-0.030761 -0.036047,-0.051304 -0.0051,-0.015369 -0.00753,-0.031185 -0.00946,-0.047056 -0.00157,-0.013742 -0.00216,-0.027653 -0.00247,-0.041456 -1.21e-4,-0.013736 3.275e-4,-0.027428 0.00134,-0.041133 0.00117,-0.014229 0.00314,-0.028356 0.00535,-0.042485 0.00203,-0.012882 0.00495,-0.025657 0.0084,-0.0383 0.00321,-0.012323 0.0087,-0.024008 0.015449,-0.035146 0.012643,-0.018785 0.03046,-0.02821 0.054741,-0.032122 0.00366,-5.854e-4 0.00739,-8.232e-4 0.011079,-0.00121 0.00495,-3.114e-4 0.00988,-5.108e-4 0.014814,-5.108e-4 0.014829,2.11e-5 0.029737,0.00124 0.044513,0.00225 0.017272,0.0012 0.03448,0.00224 0.051778,0.00309 0.016006,7.744e-4 0.03203,0.00121 0.048039,0.00187 0.0152,0.00103 0.030596,0.00239 0.045148,0.00658 0.00323,9.308e-4 0.00633,0.00216 0.00952,0.00322 0.0069,0.00258 0.013568,0.0056 0.019752,0.00921 -0.032306,-0.045477 -0.061406,-0.09281 -0.088177,-0.1412342 -0.014888,0.046823 -0.078609,0.046398 -0.093892,-0.013583 -0.00496,0.00694 -0.010701,0.01331 -0.017988,0.018797 -0.00759,0.00505 -0.010921,0.00791 -0.020176,0.011198 -0.017339,0.00616 -0.033108,0.00585 -0.050578,-3.861e-4 -0.00456,-0.00162 -0.00832,-0.00458 -0.012487,-0.00689 -0.00277,-0.00233 -0.00571,-0.00449 -0.00832,-0.00695 -0.00847,-0.008 -0.013953,-0.018037 -0.018765,-0.027937 -0.00555,-0.013235 -0.00942,-0.026882 -0.010376,-0.041004 -7.37e-4,-0.013846 -1.365e-4,-0.027746 6.417e-4,-0.041584 7.918e-4,-0.016778 0.00167,-0.033487 0.00211,-0.050275 6.417e-4,-0.019333 0.00104,-0.038732 0.0017,-0.058063 6.693e-4,-0.018325 0.00145,-0.036679 0.0029,-0.054974 0.00115,-0.013839 0.00228,-0.027681 0.00479,-0.041392 0.00314,-0.014575 0.00789,-0.028104 0.019258,-0.039588 0.010421,-0.01022 0.022341,-0.018926 0.037035,-0.024138 0.00306,-9.307e-4 0.00605,-0.00205 0.00918,-0.00285 0.00382,-9.483e-4 0.00772,-0.00169 0.011495,-0.00219 -0.013309,-0.063336 -0.022138,-0.1279848 -0.02603,-0.193759 z M 2.7709638,4.7420034 c 3.413e-4,5.856e-4 6.418e-4,0.0011 0.00114,0.00162 8.63e-5,8.85e-5 3.275e-4,3.738e-4 2.865e-4,2.616e-4 -1.91e-4,-4.235e-4 -3.959e-4,-8.232e-4 -7.096e-4,-0.00116 -2.184e-4,-2.368e-4 -4.776e-4,-4.734e-4 -7.096e-4,-7.074e-4 z" />
    <path
       id="path994-7"
       style="display:inline;fill:#ffffff;fill-opacity:1;stroke:#000000;stroke-width:0.0161347;stroke-dasharray:none;stroke-opacity:1"
       d="m 2.3845684,2.4368637 0.1070023,0.1474196 c 0.173766,0.2402115 0.199948,0.5397126 0.063147,0.7969531 -0.00141,0.00254 -0.00268,0.00494 -0.00393,0.00747 C 2.423508,3.6307333 2.174544,3.8085378 1.8744788,3.8685611 L 1.5597255,3.9313741 1.8540253,3.5622025 0.08527983,4.0704653 H 2.7296892 c 0.020125,-0.3401194 0.1699227,-0.6513191 0.407375,-0.8974382 6.36e-5,-0.00198 2.047e-4,-0.00395 2.73e-4,-0.00592 3.14e-4,-0.0078 3.14e-4,-0.015552 1.775e-4,-0.023351 -1.21e-4,-0.0065 -2.73e-4,-0.013045 -6.28e-4,-0.019537 -3.959e-4,-0.00686 -6.961e-4,-0.013688 -9.788e-4,-0.020548 -3.002e-4,-0.00659 9.37e-5,-0.012628 9.788e-4,-0.018213 z" />
    <path
       id="path995-1"
       style="display:inline;fill:#ffffff;fill-opacity:1;stroke:#000000;stroke-width:0.0161347;stroke-dasharray:none;stroke-opacity:1"
       d="m 5.6171307,5.1905724 c -0.00324,0.00948 -0.010432,0.017724 -0.020275,0.022884 -0.00298,0.00156 -0.00631,0.00255 -0.00947,0.00382 -0.00265,5.729e-4 -0.00527,0.00127 -0.00795,0.00172 -0.00806,0.00131 -0.01633,5.854e-4 -0.024383,-3.115e-4 -0.00733,-0.00103 -0.014547,-0.00237 -0.021705,-0.00413 -0.00421,-0.00103 -0.00853,-0.00187 -0.012773,-0.00279 0.00265,-9.87e-5 -0.00477,-1.371e-4 -0.00508,0 -0.00434,4.609e-4 -0.00865,0.00128 -0.012863,0.00233 -0.00453,0.00121 -0.00899,0.00255 -0.013219,0.00443 -0.00633,0.00285 -0.012719,0.00561 -0.018846,0.00879 -0.00695,0.00343 -0.014017,0.00672 -0.020988,0.010117 -0.00154,7.499e-4 -0.00865,0.00485 -0.010001,0.00498 -9.49e-5,1.52e-5 -8.4e-6,-7.09e-5 8.96e-5,-1.495e-4 -6.669e-4,4.984e-4 -0.00132,0.00113 -0.00188,0.00179 -0.033823,0.041543 -0.078532,0.031122 -0.081279,-5.48e-4 C 5.1350337,5.3701467 4.8735334,5.4487482 4.5920379,5.461211 V 7.4322281 L 5.1014122,6.1138531 4.7316397,6.3330367 4.7943404,6.098364 c 0.059929,-0.2235457 0.2383277,-0.4089791 0.4807043,-0.5039044 0.00252,-9.043e-4 0.00507,-0.00183 0.0076,-0.00279 0.257639,-0.1020535 0.5578994,-0.082649 0.7983157,0.046933 l 0.1480878,0.079858 z"
       inkscape:label="path995-1" />
    <path
       fill-rule="nonzero"
       fill="#36ac9c"
       fill-opacity="1"
       d="M 4.4085817,7.9494446 V 5.66858 C 3.9886578,5.6501033 3.6069596,5.5048184 3.313755,5.2765642 L 2.5142332,5.966401 2.6854795,5.8738917 c 0.2782224,-0.1498759 0.6257551,-0.1724616 0.9240002,-0.054348 0.00279,0.00121 0.00573,0.00216 0.00868,0.00337 0.2803204,0.1097829 0.486852,0.3242706 0.5561628,0.5830811 L 4.2469972,6.6777306 3.8189521,6.4238694 4.4085818,7.9494381"
       id="path996-0"
       style="display:inline;fill:#ffffff;fill-opacity:1;stroke:#000000;stroke-width:0.0161347;stroke-dasharray:none;stroke-opacity:1" />
    <path
       fill-rule="nonzero"
       fill="#36ac9c"
       fill-opacity="1"
       d="M 3.313755,3.0060879 C 3.6069596,2.7778307 3.9886578,2.6329055 4.4085817,2.6143101 V 0.33320731 L 3.8189518,1.8590139 4.246997,1.6051574 4.1743262,1.8766454 c -0.069311,0.2588104 -0.2758423,0.4736595 -0.5561649,0.5830788 -0.00295,0.00121 -0.00589,0.00252 -0.00868,0.00337 C 3.311236,2.5812107 2.963703,2.5586257 2.6854806,2.4087473 L 2.5142332,2.316603 3.313755,3.0060797"
       id="path997-0"
       style="display:inline;fill:#ffffff;fill-opacity:1;stroke:#000000;stroke-width:0.0161347;stroke-dasharray:none;stroke-opacity:1" />
    <path
       id="path998-3"
       style="display:inline;fill:#ffffff;fill-opacity:1;stroke:#000000;stroke-width:0.0161347;stroke-dasharray:none;stroke-opacity:1"
       d="m 6.0429051,4.2096951 c -0.00971,0.1633038 -0.054846,0.3183402 -0.1274554,0.4607056 0.017269,0.015279 0.029653,0.039891 0.031531,0.073788 0.00499,0.014349 0.00748,0.031423 0.00625,0.051294 -2.457e-4,0.00405 -8.455e-4,0.00809 -0.00117,0.012137 4.094e-4,0.00274 8.453e-4,0.0055 0.00124,0.00825 0.00213,0.015705 0.00351,0.031474 0.00482,0.047247 0.00104,0.0102 0.00216,0.020369 0.00277,0.030589 0.00407,0.068632 -0.03321,0.1070392 -0.072973,0.1109931 1.249e-4,0.00133 3.276e-4,0.00264 4.505e-4,0.00397 0.00154,0.019329 0.00304,0.038678 0.00304,0.058064 2.183e-4,0.019378 -8.64e-5,0.038765 -2.731e-4,0.058143 -1.043e-4,0.00798 -2.047e-4,0.015984 -4.504e-4,0.023974 0.033185,0.037265 0.025854,0.07148 0.00124,0.085463 L 6.3411151,5.6216233 6.2485825,5.4939741 C 6.0984978,5.2868537 6.0757824,5.0277819 6.1940993,4.8054451 c 0.00111,-0.00216 0.00227,-0.00436 0.00339,-0.00654 C 6.3074048,4.5899801 6.522484,4.4359729 6.7818015,4.3842823 L 7.0538661,4.3301838 6.7995805,4.6493074 8.328063,4.2096951 Z" />
    <path
       fill-rule="nonzero"
       fill="#24255d"
       fill-opacity="1"
       d="M 4.5920097,0.85046363 V 2.8214292 c 0.3627947,0.01606 0.6926854,0.1416625 0.9459836,0.3388785 L 6.2289986,2.5641899 6.0809961,2.6440163 c -0.2404166,0.1295875 -0.5407625,0.1490295 -0.7984015,0.047344 -0.00252,-0.00134 -0.00504,-0.00216 -0.00756,-0.00315 C 5.0326566,2.5932882 4.8542695,2.407786 4.7943402,2.1842402 L 4.7316102,1.9495849 5.1014068,2.1687806 4.5920092,0.85045631"
       id="path999-7"
       style="display:inline;fill:#ffffff;fill-opacity:1;stroke:#000000;stroke-width:0.0161347;stroke-dasharray:none;stroke-opacity:1" />
    <path
       id="path35"
       style="display:inline;fill:#ffffff;fill-opacity:1;stroke:#000000;stroke-width:0.0161347;stroke-dasharray:none;stroke-opacity:1"
       d="m 5.6171307,5.1905724 c -0.00324,0.00948 -0.010432,0.017724 -0.020275,0.022884 -0.00298,0.00156 -0.00631,0.00255 -0.00947,0.00382 -0.00265,5.729e-4 -0.00527,0.00127 -0.00795,0.00172 -0.00806,0.00131 -0.01633,5.854e-4 -0.024383,-3.115e-4 -0.00733,-0.00103 -0.014547,-0.00237 -0.021705,-0.00413 -0.00421,-0.00103 -0.00853,-0.00187 -0.012773,-0.00279 0.00265,-9.87e-5 -0.00477,-1.371e-4 -0.00508,0 -0.00434,4.609e-4 -0.00865,0.00128 -0.012863,0.00233 -0.00453,0.00121 -0.00899,0.00255 -0.013219,0.00443 -0.00633,0.00285 -0.012719,0.00561 -0.018846,0.00879 -0.00695,0.00343 -0.014017,0.00672 -0.020988,0.010117 -0.00154,7.499e-4 -0.00865,0.00485 -0.010001,0.00498 -9.49e-5,1.52e-5 -8.4e-6,-7.09e-5 8.96e-5,-1.495e-4 -6.669e-4,4.984e-4 -0.00132,0.00113 -0.00188,0.00179 -0.033823,0.041543 -0.078532,0.031122 -0.081279,-5.48e-4 C 5.1350337,5.3701467 4.8735334,5.4487482 4.5920379,5.461211 V 7.4322281 L 5.1014122,6.1138531 4.7316397,6.3330367 4.7943404,6.098364 c 0.059929,-0.2235457 0.2383277,-0.4089791 0.4807043,-0.5039044 0.00252,-9.043e-4 0.00507,-0.00183 0.0076,-0.00279 0.257639,-0.1020535 0.5578994,-0.082649 0.7983157,0.046933 l 0.1480878,0.079858 z" />
    <path
       id="text3"
       style="font-style:normal;font-variant:normal;font-weight:900;font-stretch:normal;font-size:12.7px;line-height:0.8;font-family:'LT Wave Alt';-inkscape-font-specification:'LT Wave Alt, Heavy';font-variant-ligatures:normal;font-variant-caps:normal;font-variant-numeric:normal;font-variant-east-asian:normal;display:inline;mix-blend-mode:normal;fill:#ffffff;fill-opacity:1;stroke:#000000;stroke-width:0.0242021;stroke-linecap:butt;stroke-dasharray:none;stroke-opacity:1"
       d="m 5.2139535,4.1904518 c -0.5675394,0 -0.8351142,0.182016 -0.8351142,0.6370801 0,0.4476345 0.2675792,0.6408161 0.794118,0.6408161 0.2395319,0 0.3625995,-0.016751 0.4877602,-0.046468 V 5.1488349 c -0.1316346,0.026004 -0.2654664,0.050203 -0.5049985,0.050203 -0.2675852,0 -0.418629,-0.1152163 -0.418629,-0.3771106 0,-0.2581794 0.1510391,-0.3621665 0.4596257,-0.3621665 0.1855832,0 0.3690521,0.026033 0.4640019,0.059466 V 4.2405778 C 5.5657676,4.2090018 5.3952213,4.1904518 5.2139535,4.1904518 Z m -2.8462659,0.016657 v 1.2445049 h 0.7682158 c 0.2891648,0 0.4509618,-0.1058403 0.4509618,-0.3343018 0,-0.1467348 -0.103583,-0.2359009 -0.241692,-0.3009101 v -0.00747 c 0.1122135,-0.052003 0.1834573,-0.1355405 0.1834573,-0.2637016 0,-0.2321755 -0.1661624,-0.3381154 -0.4704329,-0.3381154 z m 1.4414877,0 V 5.4516132 H 4.1566185 V 4.2071086 Z m 2.0759066,0 V 5.4516132 H 6.2325252 V 4.2071086 Z M 2.7150416,4.4616292 h 0.304303 c 0.086318,0 0.1424607,0.042726 0.1424607,0.1095914 0,0.092871 -0.062578,0.1523232 -0.1618425,0.1523232 H 2.7150416 Z m 0,0.4996233 h 0.3625378 c 0.086319,0 0.1424607,0.046417 0.1424607,0.1188539 0,0.072439 -0.056144,0.1170641 -0.1424607,0.1170641 H 2.7150416 Z" />
    <text
       xml:space="preserve"
       style="font-style:normal;font-variant:normal;font-weight:900;font-stretch:normal;font-size:2.00204px;line-height:0.8;font-family:'LT Wave Alt';-inkscape-font-specification:'LT Wave Alt, Heavy';font-variant-ligatures:normal;font-variant-caps:normal;font-variant-numeric:normal;font-variant-east-asian:normal;display:inline;mix-blend-mode:normal;fill:#ffffff;fill-opacity:1;stroke:#000000;stroke-width:0.0242546;stroke-linecap:butt;stroke-dasharray:none;stroke-opacity:1"
       x="3.948781"
       y="4.3925023"
       id="text37"
       transform="scale(1.0778715,0.92775438)"><tspan
         sodipodi:role="line"
         id="tspan36"
         style="line-height:0.8;text-align:center;text-anchor:middle;fill:#ffffff;fill-opacity:1;stroke:#000000;stroke-width:0.0242546;stroke-linecap:butt;stroke-dasharray:none;stroke-opacity:1"
         x="3.9487808"
         y="4.3925023">RUMBO</tspan><tspan
         sodipodi:role="line"
         style="line-height:0.8;text-align:center;text-anchor:middle;fill:#ffffff;fill-opacity:1;stroke:#000000;stroke-width:0.0242546;stroke-linecap:butt;stroke-dasharray:none;stroke-opacity:1"
         x="3.948781"
         y="5.9941344"
         id="tspan37" /></text>
  </g>
  <g
     inkscape:groupmode="layer"
     id="layer1"
     inkscape:label="Capa 4">
    <g
       id="g1"
       transform="translate(-0.01136826,-0.12762852)">
      <path
         fill-rule="nonzero"
         fill="#231f20"
         fill-opacity="1"
         d="M 5.7190334,3.2295807 2.4172216,4.929061 c 0.8162515,0 1.4780571,0.6170476 1.4780571,1.3773383 L 5.7190334,3.2295807"
         id="path1000-8"
         style="display:inline;mix-blend-mode:luminosity;fill:#000000;fill-opacity:1;stroke:#000000;stroke-width:0.0461911;stroke-dasharray:none;stroke-opacity:1" />
      <path
         fill-rule="nonzero"
         fill="#36ac9c"
         fill-opacity="1"
         d="m 4.7461709,1.0078827 c 1.5422889,0.4778333 2.6548006,1.832644 2.6548006,3.4305711 0,1.5965837 -1.1125117,2.9517209 -2.6548006,3.4295536 C 6.6052887,7.6844082 8.053756,6.2193082 8.053756,4.4384538 c 0,-1.7811917 -1.4484673,-3.2473077 -3.3075851,-3.4305711"
         id="path1001-2"
         style="display:inline;mix-blend-mode:luminosity;fill:#00c5cc;fill-opacity:1;stroke:#000000;stroke-width:0.0451101;stroke-dasharray:none;stroke-opacity:1" />
      <path
         fill-rule="nonzero"
         fill="#24255d"
         fill-opacity="1"
         d="m 1.1701121,4.4384538 c 0,-1.7785055 1.2229324,-3.2903494 2.9272444,-3.84551987 C 1.9322347,0.71533619 0.21673684,2.3895945 0.21673684,4.4384538 c 0,2.0478425 1.71549786,3.7221088 3.88061966,3.8451744 C 2.3930445,7.7274498 1.1701121,6.2159424 1.1701121,4.4384538"
         id="path1002-4"
         style="display:inline;mix-blend-mode:luminosity;fill:#e00097;fill-opacity:1;stroke:#000000;stroke-width:0.0451101;stroke-dasharray:none;stroke-opacity:1" />
      <ellipse
         style="display:none;opacity:1;fill:#ffffff;fill-opacity:1;stroke:#ffffff;stroke-width:0.213454;stroke-linecap:square;stroke-linejoin:round;stroke-dasharray:none;stroke-opacity:1;paint-order:stroke markers fill"
         id="path1"
         cx="4.2281651"
         cy="4.3774981"
         rx="4.0121326"
         ry="4.0782781" />
    </g>
  </g>
</svg>
