<?xml version="1.0" encoding="UTF-8" standalone="no"?>
<!-- Created with Inkscape (http://www.inkscape.org/) -->

<svg
   width="250"
   height="250"
   viewBox="0 0 66.145832 66.145832"
   version="1.1"
   id="svg1"
   inkscape:version="1.3.2 (091e20e, 2023-11-25, custom)"
   sodipodi:docname="logo.svg"
   xmlns:inkscape="http://www.inkscape.org/namespaces/inkscape"
   xmlns:sodipodi="http://sodipodi.sourceforge.net/DTD/sodipodi-0.dtd"
   xmlns:xlink="http://www.w3.org/1999/xlink"
   xmlns="http://www.w3.org/2000/svg"
   xmlns:svg="http://www.w3.org/2000/svg">
  <sodipodi:namedview
     id="namedview1"
     pagecolor="#ffffff"
     bordercolor="#000000"
     borderopacity="0.25"
     inkscape:showpageshadow="2"
     inkscape:pageopacity="0.0"
     inkscape:pagecheckerboard="0"
     inkscape:deskcolor="#d1d1d1"
     inkscape:document-units="mm"
     inkscape:zoom="1"
     inkscape:cx="160.5"
     inkscape:cy="174.5"
     inkscape:window-width="1920"
     inkscape:window-height="1009"
     inkscape:window-x="1912"
     inkscape:window-y="-8"
     inkscape:window-maximized="1"
     inkscape:current-layer="layer1"
     showgrid="false" />
  <defs
     id="defs1">
    <linearGradient
       id="linearGradient13"
       inkscape:collect="always">
      <stop
         style="stop-color:#a6006f;stop-opacity:1;"
         offset="0"
         id="stop13" />
      <stop
         style="stop-color:#a6006f;stop-opacity:0;"
         offset="1"
         id="stop14" />
    </linearGradient>
    <rect
       x="19.67516"
       y="42.111747"
       width="211.93945"
       height="151.53325"
       id="rect4" />
    <rect
       x="5.8680303"
       y="85.949385"
       width="239.55371"
       height="78.700641"
       id="rect1" />
    <linearGradient
       inkscape:collect="always"
       xlink:href="#linearGradient13"
       id="linearGradient14"
       x1="9.8332161"
       y1="29.685279"
       x2="63.857565"
       y2="29.685279"
       gradientUnits="userSpaceOnUse" />
    <linearGradient
       inkscape:collect="always"
       xlink:href="#linearGradient13"
       id="linearGradient15"
       gradientUnits="userSpaceOnUse"
       x1="9.8332161"
       y1="29.685279"
       x2="63.857565"
       y2="29.685279"
       gradientTransform="translate(0.96891898,3.0921067)" />
  </defs>
  <g
     inkscape:label="Capa 1"
     inkscape:groupmode="layer"
     id="layer1">
    <path
       id="path992"
       style="fill:#a6006f;fill-opacity:1;stroke:#000000;stroke-width:0.123732;stroke-dasharray:none;stroke-opacity:1"
       d="m 48.798135,20.507945 -3.047065,2.880534 c 0.05115,-0.01339 0.103026,-0.02268 0.157032,-0.02375 0.04375,-8.46e-4 0.08846,-0.0023 0.13086,0.0081 0.05991,0.0147 0.124082,0.02896 0.17208,0.06624 0.05953,0.04624 0.09743,0.113334 0.143291,0.172458 0.0114,-0.0027 0.02255,-0.0058 0.03402,-0.0081 0.166498,-0.02739 0.313736,0.0046 0.427911,0.143715 0.0262,-0.01064 0.05242,-0.02169 0.07917,-0.03125 0.09758,-0.02912 0.142382,-0.04633 0.244053,-0.05936 0.04093,-0.0052 0.08265,-0.0081 0.124322,-0.0081 0.137564,-0.74023 0.423808,-1.459708 0.856476,-2.115099 z m -3.090903,3.181084 c -0.003,0.0033 -0.0085,0.01287 -0.0144,0.02249 0.0051,-0.0069 0.01178,-0.013 0.01505,-0.02062 0.0015,-0.0034 9.6e-4,-0.0036 -6.54e-4,-0.0019 z m 1.428333,0.498001 c 0.0019,0.0021 0.0041,0.0041 0.006,0.0063 -8.21e-4,-0.0029 -0.0024,-0.0051 -0.0039,-0.0063 -8.7e-4,-7.11e-4 -0.0015,-7.26e-4 -0.002,0 z m 0.09814,1.302802 c -0.133561,0.148852 -0.27131,0.294762 -0.42333,0.426769 -0.159243,0.134035 -0.325669,0.263769 -0.520168,0.348663 -0.03205,0.01088 -0.0631,0.02499 -0.09618,0.03249 -0.08985,0.02042 -0.215166,0.03311 -0.299668,-0.01312 -0.02418,-0.01323 -0.04777,-0.02829 -0.07066,-0.04436 -0.04291,0.02652 -0.08701,0.0517 -0.133477,0.07186 -0.02495,0.01088 -0.04925,0.0232 -0.07589,0.02937 -0.04764,0.011 -0.09682,0.01462 -0.145255,0.02187 -0.09361,-0.04136 -0.214825,-0.04844 -0.281348,-0.123719 -0.06005,-0.06794 -0.08679,-0.136754 -0.09225,-0.204324 -0.02594,0.0215 -0.05223,0.0422 -0.07394,0.05874 -0.01669,0.01064 -0.03226,0.02243 -0.04972,0.03186 -0.07249,0.03918 -0.206957,0.0973 -0.282002,0.05687 -0.01847,-0.0099 -0.03256,-0.01877 -0.04908,-0.02811 -0.04078,0.01948 -0.08197,0.03834 -0.123006,0.05748 0.321664,0.422524 0.610513,0.868644 0.864981,1.334044 0.07201,-0.0033 0.143896,-0.008 0.215918,-0.01185 0.167901,-0.0083 0.335822,-0.01484 0.50381,-0.02125 0.170517,-0.0066 0.341684,-0.01161 0.512315,-0.01436 0.03741,-0.0012 0.0746,-0.0016 0.111889,-6.26e-4 0.111838,0.0028 0.222794,0.01501 0.333037,0.03436 0.11955,0.02158 0.233225,0.06164 0.339581,0.117469 0.121145,0.06838 0.222286,0.171821 0.243399,0.309923 0.0037,4.48e-4 0.0075,8.27e-4 0.01114,0.0012 0.03445,0.0042 0.06838,0.01052 0.102722,0.01562 0.133037,0.02674 0.269733,0.06076 0.387345,0.128718 0.02394,0.01383 0.04621,0.02998 0.06936,0.04499 0.08483,0.08221 0.14838,0.12406 0.159648,0.264309 0.0061,0.07581 -0.01433,0.154121 -0.04646,0.223695 -0.03877,0.08396 -0.130082,0.14194 -0.212647,0.179955 -0.02728,0.01255 -0.05661,0.02006 -0.08506,0.03 -0.04568,0.01052 -0.0918,0.01907 -0.138056,0.02624 5.41e-4,0.004 0.0015,0.0079 0.002,0.01185 0.0053,0.06388 -0.0077,0.122571 -0.03338,0.175582 0.04529,0.02965 0.0853,0.06418 0.106647,0.102475 0.03381,0.06063 0.07009,0.125059 0.07263,0.193702 0.0028,0.07631 -0.03858,0.148276 -0.05758,0.222445 -0.01917,0.01983 -0.03702,0.04082 -0.05562,0.06123 l -6.54e-4,6.24e-4 c -0.03571,0.147479 -0.200991,0.282658 -0.502501,0.295552 -0.141391,0.006 -0.282596,0.01209 -0.423985,0.01812 -0.212249,0.0082 -0.424827,0.01682 -0.637286,0.0175 -0.0094,-1.39e-4 -0.01874,-4.85e-4 -0.02813,-6.24e-4 0.150367,0.605061 0.245936,1.229778 0.280694,1.869534 h 16.740211 l -5.095018,-1.6046 c -0.178246,0.152984 -0.466145,0.254274 -0.861709,0.240565 -0.107344,-0.0037 -0.214888,-0.0099 -0.321915,-0.01874 -0.129613,-0.01064 -0.259152,-0.0233 -0.388,-0.04061 -0.133117,-0.01775 -0.265745,-0.03787 -0.398466,-0.05811 -0.151522,-0.02537 -0.302687,-0.05369 -0.45212,-0.08873 -0.141169,-0.03493 -0.280934,-0.07395 -0.416788,-0.124969 -0.143758,-0.05043 -0.285394,-0.106176 -0.422677,-0.171208 -0.112965,-0.05388 -0.224301,-0.111339 -0.335,-0.169333 -0.01076,-0.0057 -0.108458,-0.04555 -0.05038,-0.03062 0.01608,0.0041 0.03227,0.0074 0.04842,0.01124 0.659834,0.159484 0.432959,-0.223628 0.179278,-0.62672 l -2.682621,-0.844789 1.862786,2.561238 -1.992992,-0.436142 c -1.899653,-0.414931 -3.475217,-1.648382 -4.280416,-3.328547 -0.0082,-0.01729 -0.01668,-0.03508 -0.02487,-0.05249 -0.245588,-0.50491 -0.405455,-1.033723 -0.487453,-1.570234 z" />
    <path
       id="path993"
       style="fill:#00a0a6;fill-opacity:1;stroke:#000000;stroke-width:0.123732;stroke-dasharray:none;stroke-opacity:1"
       d="m 2.9704587,33.026709 12.9570603,4.083361 -2.155912,-2.963639 2.305747,0.501125 c 2.198141,0.481869 4.021953,1.911199 4.954342,3.852169 0.0092,0.02031 0.01854,0.03967 0.02879,0.05999 1.002141,2.065074 0.810347,4.472318 -0.462589,6.397786 l -0.785158,1.18658 4.903308,-4.633849 c -0.261086,9.06e-4 -0.275006,-0.06517 -0.352012,-0.247439 -0.08338,0.0099 -0.19246,-0.04207 -0.380147,-0.144338 -0.08443,0.01701 -0.169758,0.03088 -0.255176,0.04312 -0.110838,0.08035 -0.241728,0.123904 -0.373604,0.16121 -0.13033,0.03764 -0.266519,0.04745 -0.401739,0.05373 -0.118435,0.0045 -0.236371,9.68e-4 -0.354629,-0.0056 -0.122601,-0.0069 -0.24637,-0.03072 -0.353321,-0.09123 -0.02837,-0.01606 -0.05404,-0.03579 -0.08113,-0.05373 -0.140981,-0.116199 -0.206642,-0.246853 -0.263682,-0.411771 -0.03736,-0.123382 -0.05523,-0.250625 -0.06936,-0.378032 -0.01152,-0.110323 -0.01604,-0.221614 -0.01832,-0.332417 -8.86e-4,-0.110262 0.0025,-0.220523 0.0099,-0.330544 0.0086,-0.114228 0.02292,-0.227734 0.03926,-0.341164 0.01494,-0.103419 0.03619,-0.205916 0.06151,-0.307424 0.0235,-0.09892 0.06376,-0.192389 0.113193,-0.281805 0.09261,-0.150804 0.223208,-0.22666 0.401086,-0.258062 0.02684,-0.0047 0.05405,-0.0068 0.08113,-0.01004 0.03621,-0.0025 0.0724,-0.0037 0.10861,-0.0037 0.108635,1.69e-4 0.217601,0.0099 0.325839,0.01812 0.126526,0.0096 0.252773,0.01759 0.379493,0.02437 0.117245,0.0062 0.23473,0.0097 0.352013,0.01499 0.111345,0.0082 0.223824,0.01952 0.33042,0.05311 0.02373,0.0075 0.04665,0.01716 0.07001,0.02562 0.05047,0.02066 0.0993,0.04475 0.144599,0.07373 -0.23667,-0.365074 -0.449679,-0.744722 -0.645791,-1.133468 -0.109066,0.375889 -0.575709,0.372178 -0.687667,-0.109343 -0.03636,0.05573 -0.07879,0.107166 -0.132169,0.151212 -0.05563,0.04052 -0.08004,0.06353 -0.14787,0.08997 -0.12703,0.0495 -0.242351,0.04689 -0.370333,-0.0031 -0.03345,-0.01307 -0.06107,-0.03716 -0.09161,-0.05561 -0.02031,-0.01866 -0.04173,-0.03583 -0.06085,-0.05561 -0.06202,-0.06416 -0.102153,-0.144841 -0.137404,-0.224318 -0.04063,-0.106248 -0.06893,-0.215924 -0.07589,-0.329294 -0.0054,-0.111157 -0.0011,-0.22257 0.0046,-0.333667 0.0058,-0.134681 0.01241,-0.268886 0.0157,-0.40365 0.0047,-0.155202 0.0076,-0.310933 0.01241,-0.466134 0.0049,-0.147109 0.01038,-0.294275 0.02094,-0.441139 0.0084,-0.111097 0.01688,-0.222349 0.03534,-0.332418 0.02301,-0.117009 0.05747,-0.225848 0.140674,-0.318046 0.0763,-0.08204 0.163886,-0.151853 0.271533,-0.193702 0.02241,-0.0075 0.04453,-0.0162 0.0674,-0.02249 0.02808,-0.0076 0.05607,-0.01352 0.08376,-0.0175 -0.09749,-0.508451 -0.161891,-1.02784 -0.190402,-1.555863 z m 19.6740823,4.187085 c 0.0025,0.0047 0.0049,0.0091 0.0085,0.01312 6.33e-4,7.1e-4 0.0023,0.0028 0.002,0.0019 -0.0014,-0.0034 -0.0029,-0.0067 -0.0052,-0.0094 -0.0016,-0.0019 -0.0035,-0.0037 -0.0052,-0.0056 z m 2.55765,3.624723 c -0.01508,0.08043 -0.0304,0.160827 -0.0458,0.241191 -0.0012,0.0053 -0.0027,0.01238 -0.0039,0.01813 l 0.239473,-0.226195 c -0.02615,-0.0034 -0.05517,-0.0082 -0.09029,-0.01499 -0.0051,-9.95e-4 -0.0099,-0.0024 -0.0144,-0.0044 l -0.0046,0.0044 c -0.02613,-0.0075 -0.05348,-0.01252 -0.08048,-0.01812 z" />
    <path
       id="path994"
       style="fill:#00a0a6;fill-opacity:1;stroke:#000000;stroke-width:0.123732;stroke-dasharray:none;stroke-opacity:1"
       d="m 19.814049,18.642158 0.783849,1.183456 c 1.272936,1.928372 1.464732,4.332708 0.462588,6.397786 -0.01026,0.02031 -0.01956,0.03967 -0.02879,0.05998 -0.932392,1.942931 -2.756196,3.370312 -4.954343,3.852168 l -2.305746,0.50425 2.155912,-2.963638 -12.9570608,4.080236 H 22.342253 c 0.147426,-2.730414 1.24478,-5.228664 2.984252,-7.20446 4.66e-4,-0.01584 0.0015,-0.03166 0.002,-0.04748 0.0023,-0.06257 0.0023,-0.124855 0.0013,-0.187453 -8.86e-4,-0.05216 -0.002,-0.104724 -0.0046,-0.156836 -0.0029,-0.05506 -0.0051,-0.109875 -0.0072,-0.164959 -0.0022,-0.05288 6.86e-4,-0.101375 0.0072,-0.146214 z" />
    <path
       id="path995"
       style="fill:#a6006f;fill-opacity:1;stroke:#000000;stroke-width:0.123732;stroke-dasharray:none;stroke-opacity:1"
       d="m 43.494397,40.814773 c -0.02374,0.0761 -0.0764,0.142279 -0.148525,0.183705 -0.02183,0.01254 -0.04623,0.02046 -0.06936,0.03062 -0.01936,0.0046 -0.03863,0.01028 -0.05823,0.01375 -0.05904,0.01052 -0.119625,0.0047 -0.178624,-0.0025 -0.05372,-0.0083 -0.106571,-0.01902 -0.158994,-0.03312 -0.03083,-0.0083 -0.06255,-0.01499 -0.09357,-0.02249 0.01935,-7.92e-4 -0.03488,-0.0011 -0.03729,0 -0.03183,0.0037 -0.06336,0.0104 -0.09423,0.01874 -0.03317,0.0098 -0.06588,0.02042 -0.09683,0.03562 -0.04642,0.02276 -0.09318,0.0451 -0.138057,0.0706 -0.05086,0.02758 -0.102684,0.05403 -0.15376,0.08123 -0.0114,0.006 -0.06328,0.03887 -0.07329,0.03999 -6.96e-4,1.21e-4 -6.2e-5,-5.7e-4 6.55e-4,-0.0012 -0.0049,0.004 -0.0097,0.0091 -0.01374,0.01436 -0.247771,0.333495 -0.575285,0.249843 -0.595411,-0.0044 -1.622385,1.016645 -3.538022,1.647642 -5.600136,1.747691 v 15.822944 l 3.731461,-10.583621 -2.708793,1.759563 0.459316,-1.883907 c 0.439017,-1.79458 1.745886,-3.283204 3.521432,-4.045245 0.01846,-0.0073 0.03715,-0.01475 0.05561,-0.02249 1.887351,-0.819257 4.086929,-0.663496 5.848114,0.376782 l 1.084827,0.64109 z" />
    <path
       fill-rule="nonzero"
       fill="#36ac9c"
       fill-opacity="1"
       d="M 34.64109,62.962465 V 44.652126 c -3.07618,-0.148327 -5.872335,-1.314647 -8.020225,-3.147027 l -5.856948,5.537876 1.254474,-0.742647 c 2.038137,-1.203175 4.584011,-1.384487 6.768827,-0.436285 0.0205,0.0097 0.04206,0.01741 0.0636,0.02708 2.05352,0.8813 3.56648,2.603163 4.074221,4.680843 l 0.532355,2.181424 -3.135673,-2.037947 4.319372,12.246969"
       id="path996"
       style="fill:#00a0a6;fill-opacity:1;stroke:#000000;stroke-width:0.123732;stroke-dasharray:none;stroke-opacity:1" />
    <path
       fill-rule="nonzero"
       fill="#36ac9c"
       fill-opacity="1"
       d="m 26.620865,23.278155 c 2.14789,-1.832404 4.944045,-2.995835 8.020225,-3.145116 V 1.8207888 l -4.319372,12.2488792 3.135673,-2.037911 -0.532355,2.179453 c -0.507742,2.07768 -2.020701,3.802446 -4.074221,4.680844 -0.02154,0.0097 -0.04309,0.02031 -0.0636,0.02708 -2.184815,0.948189 -4.73069,0.766878 -6.768826,-0.43631 l -1.254474,-0.73972 5.856948,5.534985"
       id="path997"
       style="fill:#00a0a6;fill-opacity:1;stroke:#000000;stroke-width:0.123732;stroke-dasharray:none;stroke-opacity:1" />
    <path
       id="path998"
       style="fill:#a6006f;fill-opacity:1;stroke:#000000;stroke-width:0.123732;stroke-dasharray:none;stroke-opacity:1"
       d="m 46.613435,32.94048 c -0.07116,1.310972 -0.401779,2.555575 -0.933683,3.698456 0.1265,0.12266 0.217227,0.320241 0.230967,0.592353 0.03659,0.115196 0.05476,0.252263 0.0458,0.411773 -0.0018,0.03254 -0.0062,0.06494 -0.0085,0.09747 0.003,0.02208 0.0062,0.04415 0.0091,0.06624 0.01559,0.126088 0.02572,0.25267 0.03534,0.379281 0.0076,0.08181 0.01585,0.163523 0.02028,0.245563 0.02984,0.550975 -0.243286,0.859291 -0.534561,0.891029 9.15e-4,0.01064 0.0024,0.02123 0.0033,0.03187 0.01127,0.155169 0.02223,0.310497 0.02225,0.466134 0.0016,0.155566 -6.33e-4,0.311194 -0.002,0.466759 -7.64e-4,0.06413 -0.0015,0.12832 -0.0033,0.192453 0.243102,0.299153 0.189392,0.573826 0.0091,0.686079 l 3.290464,3.109227 -0.677853,-1.024744 c -1.099457,-1.662722 -1.26586,-3.7425 -0.399121,-5.527378 0.0082,-0.01741 0.01667,-0.03508 0.02487,-0.05249 0.805196,-1.677246 2.380768,-2.913586 4.280416,-3.328547 l 1.992992,-0.434267 -1.862786,2.561862 11.196999,-3.529123 z" />
    <path
       fill-rule="nonzero"
       fill="#24255d"
       fill-opacity="1"
       d="M 35.984804,5.9732221 V 21.795751 c 2.657678,0.128931 5.074312,1.13724 6.929866,2.720451 l 5.062005,-4.785519 -1.084203,0.640836 c -1.761187,1.040303 -3.96139,1.19638 -5.848742,0.380072 -0.01846,-0.01088 -0.03693,-0.01729 -0.05539,-0.02527 -1.775547,-0.762042 -3.082334,-2.251217 -3.52135,-4.045799 l -0.45953,-1.883768 2.708968,1.759661 -3.731625,-10.5832524"
       id="path999"
       style="fill:#a6006f;fill-opacity:1;stroke:#000000;stroke-width:0.123732;stroke-dasharray:none;stroke-opacity:1" />
    <path
       id="path35"
       style="fill:#a6006f;fill-opacity:1;stroke:#000000;stroke-width:0.123732;stroke-dasharray:none;stroke-opacity:1"
       d="m 43.494397,40.814773 c -0.02374,0.0761 -0.0764,0.142279 -0.148525,0.183705 -0.02183,0.01254 -0.04623,0.02046 -0.06936,0.03062 -0.01936,0.0046 -0.03863,0.01028 -0.05823,0.01375 -0.05904,0.01052 -0.119625,0.0047 -0.178624,-0.0025 -0.05372,-0.0083 -0.106571,-0.01902 -0.158994,-0.03312 -0.03083,-0.0083 -0.06255,-0.01499 -0.09357,-0.02249 0.01935,-7.92e-4 -0.03488,-0.0011 -0.03729,0 -0.03183,0.0037 -0.06336,0.0104 -0.09423,0.01874 -0.03317,0.0098 -0.06588,0.02042 -0.09683,0.03562 -0.04642,0.02276 -0.09318,0.0451 -0.138057,0.0706 -0.05086,0.02758 -0.102684,0.05403 -0.15376,0.08123 -0.0114,0.006 -0.06328,0.03887 -0.07329,0.03999 -6.96e-4,1.21e-4 -6.2e-5,-5.7e-4 6.55e-4,-0.0012 -0.0049,0.004 -0.0097,0.0091 -0.01374,0.01436 -0.247771,0.333495 -0.575285,0.249843 -0.595411,-0.0044 -1.622385,1.016645 -3.538022,1.647642 -5.600136,1.747691 v 15.822944 l 3.731461,-10.583621 -2.708793,1.759563 0.459316,-1.883907 c 0.439017,-1.79458 1.745886,-3.283204 3.521432,-4.045245 0.01846,-0.0073 0.03715,-0.01475 0.05561,-0.02249 1.887351,-0.819257 4.086929,-0.663496 5.848114,0.376782 l 1.084827,0.64109 z" />
  </g>
  <g
     inkscape:groupmode="layer"
     id="layer2"
     inkscape:label="Capa2-texto"
     style="display:inline;mix-blend-mode:normal;fill:url(#linearGradient14);fill-opacity:1;stroke:#000000;stroke-opacity:1"
     transform="matrix(0.98309495,0,0,0.97100317,0.62287304,0.86077898)">
    <path
       id="text3"
       style="font-style:normal;font-variant:normal;font-weight:900;font-stretch:normal;font-size:12.7px;line-height:0.8;font-family:'LT Wave Alt';-inkscape-font-specification:'LT Wave Alt, Heavy';font-variant-ligatures:normal;font-variant-caps:normal;font-variant-numeric:normal;font-variant-east-asian:normal;display:inline;fill:#00a0a6;fill-opacity:1;stroke:#000000;stroke-width:0.189961;stroke-linecap:butt;stroke-dasharray:none;stroke-opacity:1"
       d="m 40.604443,32.975269 c -4.229041,0 -6.222883,1.504823 -6.222883,5.267083 0,3.700837 1.993875,5.297972 5.917397,5.297972 1.78488,0 2.701923,-0.138474 3.634563,-0.384172 v -2.257413 c -0.98088,0.214986 -1.978133,0.415059 -3.763015,0.415059 -1.99392,0 -3.119428,-0.952558 -3.119428,-3.117778 0,-2.134507 1.125474,-2.994225 3.424916,-2.994225 1.382881,0 2.750006,0.215226 3.457527,0.491637 v -2.303745 c -0.707521,-0.261055 -1.978356,-0.414418 -3.329077,-0.414418 z m -21.209049,0.13771 v 10.288992 h 5.724386 c 2.154722,0 3.360358,-0.875043 3.360358,-2.763852 0,-1.213137 -0.771855,-1.950321 -1.800977,-2.487788 v -0.06178 c 0.836161,-0.429972 1.367038,-1.120617 1.367038,-2.180193 0,-1.91952 -1.238165,-2.795383 -3.505447,-2.795383 z m 10.741295,0 v 10.288992 h 2.588985 V 33.112979 Z m 15.46869,0 v 10.288992 h 2.588985 V 33.112979 Z m -23.621666,2.104259 h 2.267525 c 0.643201,0 1.061552,0.353232 1.061552,0.906055 0,0.767808 -0.466295,1.259338 -1.205976,1.259338 h -2.123101 z m 0,4.130656 h 2.701464 c 0.6432,0 1.06155,0.38374 1.06155,0.98263 0,0.598891 -0.41835,0.967831 -1.06155,0.967831 h -2.701464 z" />
    <text
       xml:space="preserve"
       style="font-style:normal;font-variant:normal;font-weight:900;font-stretch:normal;font-size:15.7139px;line-height:0.8;font-family:'LT Wave Alt';-inkscape-font-specification:'LT Wave Alt, Heavy';font-variant-ligatures:normal;font-variant-caps:normal;font-variant-numeric:normal;font-variant-east-asian:normal;display:inline;fill:#a6006f;fill-opacity:1;stroke:#000000;stroke-width:0.18996;stroke-linecap:butt;stroke-dasharray:none;stroke-opacity:1"
       x="32.706329"
       y="32.564289"
       id="text37"
       transform="scale(1.023297,0.97723342)"><tspan
         sodipodi:role="line"
         id="tspan36"
         style="line-height:0.8;text-align:center;text-anchor:middle;fill:#a6006f;fill-opacity:1;stroke:#000000;stroke-width:0.18996;stroke-linecap:butt;stroke-dasharray:none;stroke-opacity:1"
         x="32.706329"
         y="32.564289">RUMBO</tspan><tspan
         sodipodi:role="line"
         style="line-height:0.8;text-align:center;text-anchor:middle;fill:#a6006f;fill-opacity:1;stroke:#000000;stroke-width:0.18996;stroke-linecap:butt;stroke-dasharray:none;stroke-opacity:1"
         x="32.706329"
         y="45.135441"
         id="tspan37" /></text>
  </g>
</svg>
